<svg id="logo-svg" version="1.1" xmlns="http://www.w3.org/2000/svg" xmlns:xlink="http://www.w3.org/1999/xlink" x="0px" y="0px" viewBox="0 0 220.454 220.454" style="enable-background:new 0 0 220.454 220.454" xml:space="preserve"> <path d="M175.227,125.743v53.5c0,16.266-13.234,29.5-29.5,29.5h-71c-16.266,0-29.5-13.234-29.5-29.5v-53.5c0-6.065,4.935-11,11-11
                                h108C170.292,114.743,175.227,119.678,175.227,125.743z M213.348,113.488L115.227,69.17V58.728
                                c10.716-2.303,18.775-11.847,18.775-23.242c0-13.11-10.666-23.775-23.775-23.775S86.451,22.376,86.451,35.486
                                c0,1.656,0.172,3.313,0.512,4.925c0.569,2.701,3.219,4.432,5.924,3.861c2.702-0.569,4.431-3.222,3.861-5.923
                                c-0.197-0.935-0.297-1.898-0.297-2.863c0-7.596,6.18-13.775,13.775-13.775s13.775,6.18,13.775,13.775s-6.18,13.775-13.775,13.775
                                c-2.761,0-5,2.239-5,5V69.17L7.106,113.488c-5.302,2.395-8.041,7.825-6.816,13.512c1.225,5.688,5.957,9.508,11.774,9.508h25.164v-10
                                H12.063c-1.364,0-1.839-0.877-1.998-1.613c-0.159-0.736-0.086-1.732,1.157-2.293l99.005-44.717l99.005,44.717
                                c1.243,0.562,1.315,1.557,1.157,2.293c-0.159,0.736-0.634,1.613-1.998,1.613h-25.164v10h25.164c5.817,0,10.549-3.821,11.774-9.508
                                C221.389,121.313,218.65,115.883,213.348,113.488z"></path> </svg>